<?xml version="1.0" encoding="UTF-8"?><!DOCTYPE svg PUBLIC "-//W3C//DTD SVG 1.1//EN" "http://www.w3.org/Graphics/SVG/1.1/DTD/svg11.dtd"><svg xmlns="http://www.w3.org/2000/svg" xmlns:xlink="http://www.w3.org/1999/xlink"><defs/><symbol id="dashboard" viewBox="0 0 512 512"><g><g><g><path d="M435.143 129.356c-6.796-6.795-17.463-7.797-25.407-2.384-29.926 20.398-180.03 122.969-196.162 139.1-23.394 23.395-23.394 61.459 0 84.854 11.697 11.696 27.063 17.545 42.427 17.545 15.364 0 30.729-5.849 42.427-17.545 16.131-16.132 118.701-166.236 139.1-196.162C442.939 146.821 441.938 136.153 435.143 129.356zM270.142 322.641c-7.797 7.799-20.486 7.799-28.283 0-7.798-7.797-7.799-20.482-.004-28.28 6.268-6.194 48.885-36.588 101.319-73.035C306.728 273.76 276.334 316.375 270.142 322.641z"/><path d="M92.231 401.523l-24.69 12.044C49.475 381.325 40 345.338 40 308.499c0-26.991 4.977-52.842 14.06-76.683l28.291 13.57c2.79 1.338 5.735 1.972 8.636 1.972 7.453 0 14.608-4.185 18.047-11.355 4.776-9.959.576-21.906-9.384-26.683l-27.932-13.398c34.717-56.62 94.784-96.095 164.283-102.505v30.081c0 11.046 8.954 20 20 20 11.046 0 20-8.954 20-20V93.402c23.828 2.169 46.884 8.237 68.771 18.117 10.065 4.545 21.912.066 26.457-9.999 4.545-10.068.068-21.913-10-26.458C328.063 60.091 292.659 52.499 256 52.499c-68.38 0-132.667 26.628-181.02 74.98C26.629 175.832 0 240.119 0 308.499c0 50.53 14.998 99.674 43.373 142.115 3.822 5.715 10.141 8.886 16.639 8.886 2.954 0 5.946-.655 8.757-2.026l41-20c9.928-4.843 14.05-16.816 9.207-26.744C114.133 400.803 102.159 396.682 92.231 401.523z"/><path d="M489.436 203.271c-4.544-10.067-16.387-14.547-26.458-10-10.067 4.545-14.544 16.39-9.999 26.457C465.601 247.686 472 277.553 472 308.499c0 36.894-9.506 72.939-27.625 105.218l-25.777-12.275c-9.971-4.748-21.906-.515-26.656 9.459-4.749 9.972-.514 21.907 9.459 26.656l42 20c2.763 1.315 5.692 1.944 8.588 1.944 6.5 0 12.82-3.175 16.637-8.886C497.002 408.173 512 359.029 512 308.499 512 271.84 504.408 236.436 489.436 203.271z"/></g></g></g><g></g><g></g><g></g><g></g><g></g><g></g><g></g><g></g><g></g><g></g><g></g><g></g><g></g><g></g><g></g></symbol><symbol id="edit" viewBox="0 -1 401.52289 401"><path d="m370.589844 250.972656c-5.523438 0-10 4.476563-10 10v88.789063c-.019532 16.5625-13.4375 29.984375-30 30h-280.589844c-16.5625-.015625-29.980469-13.4375-30-30v-260.589844c.019531-16.558594 13.4375-29.980469 30-30h88.789062c5.523438 0 10-4.476563 10-10 0-5.519531-4.476562-10-10-10h-88.789062c-27.601562.03125-49.96875 22.398437-50 50v260.59375c.03125 27.601563 22.398438 49.96875 50 50h280.589844c27.601562-.03125 49.96875-22.398437 50-50v-88.792969c0-5.523437-4.476563-10-10-10zm0 0"/><path d="m376.628906 13.441406c-17.574218-17.574218-46.066406-17.574218-63.640625 0l-178.40625 178.40625c-1.222656 1.222656-2.105469 2.738282-2.566406 4.402344l-23.460937 84.699219c-.964844 3.472656.015624 7.191406 2.5625 9.742187 2.550781 2.546875 6.269531 3.527344 9.742187 2.566406l84.699219-23.464843c1.664062-.460938 3.179687-1.34375 4.402344-2.566407l178.402343-178.410156c17.546875-17.585937 17.546875-46.054687 0-63.640625zm-220.257812 184.90625 146.011718-146.015625 47.089844 47.089844-146.015625 146.015625zm-9.40625 18.875 37.621094 37.625-52.039063 14.417969zm227.257812-142.546875-10.605468 10.605469-47.09375-47.09375 10.609374-10.605469c9.761719-9.761719 25.589844-9.761719 35.351563 0l11.738281 11.734375c9.746094 9.773438 9.746094 25.589844 0 35.359375zm0 0"/></symbol><symbol id="events" viewBox="0 0 64 64"><g id="Calendar"><path d="M57 8H52V6a4 4 0 0 0-8 0V8H36V6a4 4 0 0 0-8 0V8H20V6a4 4 0 0 0-8 0V8H7a5 5 0 0 0-5 5V53a5 5 0 0 0 5 5H35a1 1 0 0 0 0-2H7a3.009 3.009 0 0 1-3-3V22H60V39a1 1 0 0 0 2 0V13A5 5 0 0 0 57 8ZM46 6a2 2 0 0 1 4 0v6a2 2 0 0 1-4 0ZM30 6a2 2 0 0 1 4 0v6a2 2 0 0 1-4 0ZM14 6a2 2 0 0 1 4 0v6a2 2 0 0 1-4 0ZM60 20H4V13a3.009 3.009 0 0 1 3-3h5v2a4 4 0 0 0 8 0V10h8v2a4 4 0 0 0 8 0V10h8v2a4 4 0 0 0 8 0V10h5a3.009 3.009 0 0 1 3 3Z"/><path d="M30 29a2 2 0 0 0-2-2H24a2 2 0 0 0-2 2v3a2 2 0 0 0 2 2h4a2 2 0 0 0 2-2Zm-6 3V29h4v3Z"/><path d="M18 29a2 2 0 0 0-2-2H12a2 2 0 0 0-2 2v3a2 2 0 0 0 2 2h4a2 2 0 0 0 2-2Zm-6 3V29h4v3Z"/><path d="M52 34a2 2 0 0 0 2-2V29a2 2 0 0 0-2-2H48a2 2 0 0 0-2 2v3a2 2 0 0 0 2 2Zm-4-5h4v3H48Z"/><path d="M30 38a2 2 0 0 0-2-2H24a2 2 0 0 0-2 2v3a2 2 0 0 0 2 2h4a2 2 0 0 0 2-2Zm-6 3V38h4v3Z"/><path d="M18 38a2 2 0 0 0-2-2H12a2 2 0 0 0-2 2v3a2 2 0 0 0 2 2h4a2 2 0 0 0 2-2Zm-6 3V38h4v3Z"/><path d="M28 45H24a2 2 0 0 0-2 2v3a2 2 0 0 0 2 2h4a2 2 0 0 0 2-2V47A2 2 0 0 0 28 45Zm-4 5V47h4v3Z"/><path d="M36 34h4a2 2 0 0 0 2-2V29a2 2 0 0 0-2-2H36a2 2 0 0 0-2 2v3A2 2 0 0 0 36 34Zm0-5h4v3H36Z"/><path d="M34 41a2 2 0 0 0 2 2 1 1 0 0 0 0-2V38h4a1 1 0 0 0 0-2H36a2 2 0 0 0-2 2Z"/><path d="M16 45H12a2 2 0 0 0-2 2v3a2 2 0 0 0 2 2h4a2 2 0 0 0 2-2V47A2 2 0 0 0 16 45Zm-4 5V47h4v3Z"/><path d="M49 36A13 13 0 1 0 62 49 13.015 13.015 0 0 0 49 36Zm0 24A11 11 0 1 1 60 49 11.013 11.013 0 0 1 49 60Z"/><path d="M54.778 44.808 47 52.586 43.465 49.05a1 1 0 0 0-1.414 1.414l4.242 4.243a1 1 0 0 0 1.414 0l8.485-8.485a1 1 0 0 0-1.414-1.414Z"/></g></symbol><symbol id="eye" viewBox="0 0 511.999 511.999"><g><g><path d="M508.745 246.041c-4.574-6.257-113.557-153.206-252.748-153.206S7.818 239.784 3.249 246.035c-4.332 5.936-4.332 13.987 0 19.923 4.569 6.257 113.557 153.206 252.748 153.206s248.174-146.95 252.748-153.201C513.083 260.028 513.083 251.971 508.745 246.041zM255.997 385.406c-102.529 0-191.33-97.533-217.617-129.418 26.253-31.913 114.868-129.395 217.617-129.395 102.524 0 191.319 97.516 217.617 129.418C447.361 287.923 358.746 385.406 255.997 385.406z"/></g></g><g><g><path d="M255.997 154.725c-55.842 0-101.275 45.433-101.275 101.275s45.433 101.275 101.275 101.275 101.275-45.433 101.275-101.275S311.839 154.725 255.997 154.725zM255.997 323.516c-37.23 0-67.516-30.287-67.516-67.516s30.287-67.516 67.516-67.516 67.516 30.287 67.516 67.516S293.227 323.516 255.997 323.516z"/></g></g><g></g><g></g><g></g><g></g><g></g><g></g><g></g><g></g><g></g><g></g><g></g><g></g><g></g><g></g><g></g></symbol><symbol id="filter" viewBox="0 0 512 512"><g><path d="m90.5 0h-30v362h-30v90h30v60h30v-60h30v-90h-30zm0 422h-30v-30h30z"/><path d="m481.5 362h-30v-362h-30v362h-30v90h30v60h30v-60h30zm-30 60h-30v-30h30z"/><path d="m331.5 0h-30v222h-30v90h30v200h30v-200h30v-90h-30zm0 282h-30v-30h30z"/><path d="m210.5 0h-30v53.652h-30v90h30v368.348h30v-368.348h30v-90h-30zm0 113.652h-30v-30h30z"/></g></symbol><symbol id="grades" viewBox="0 0 480 480"><g><g><path d="M472 0H8C3.576 0 0 3.584 0 8v288c0 4.416 3.576 8 8 8h80v14.496C73.68 326.808 64 342.28 64 360c0 15.56 7.48 29.376 18.992 38.152C57.704 409.336 40 434.624 40 464v8c0 4.416 3.576 8 8 8h128 128 128c4.424 0 8-3.584 8-8v-8c0-29.376-17.704-54.664-42.992-65.848C408.52 389.376 416 375.56 416 360c0-17.72-9.68-33.192-24-41.504V304h80c4.424 0 8-3.584 8-8V8C480 3.584 476.424 0 472 0zM80 360c0-17.648 14.352-32 32-32s32 14.352 32 32-14.352 32-32 32S80 377.648 80 360zM56 464c0-30.88 25.128-56 56-56s56 25.12 56 56H56zM141.008 398.152C152.52 389.376 160 375.56 160 360c0-12.304-4.688-23.496-12.32-32h56.648c-7.64 8.504-12.328 19.696-12.328 32 0 15.56 7.48 29.376 18.992 38.152-15.104 6.68-27.464 18.392-34.992 33.008C168.472 416.544 156.112 404.832 141.008 398.152zM208 360c0-17.648 14.352-32 32-32s32 14.352 32 32-14.352 32-32 32S208 377.648 208 360zM184 464c0-30.88 25.128-56 56-56s56 25.12 56 56H184zM269.008 398.152C280.52 389.376 288 375.56 288 360c0-12.304-4.688-23.496-12.32-32h56.648c-7.64 8.504-12.328 19.696-12.328 32 0 15.56 7.48 29.376 18.992 38.152-15.104 6.68-27.464 18.392-34.992 33.008C296.472 416.544 284.112 404.832 269.008 398.152zM424 464H312c0-30.88 25.128-56 56-56S424 433.12 424 464zM400 360c0 17.648-14.352 32-32 32s-32-14.352-32-32 14.352-32 32-32S400 342.352 400 360zM384 248h-24v16h16v48H104v-56c0-4.416-3.576-8-8-8H72v-16h104 128 104v16H384zM287.16 128c9.048 0 17.92 3.112 24.984 8.768l26.848 21.48c1.72 1.376 3.936 1.992 6.104 1.68 2.168-.304 4.136-1.488 5.408-3.28l35.24-49.336 19.144 14.352-39.256 53.984c-3.944 5.432-9.792 8.872-16.448 9.704-6.68.824-13.168-1.08-18.32-5.376l-21.744-18.12c-2.384-1.984-5.712-2.408-8.512-1.104C297.8 162.072 296 164.896 296 168v48h-48v-72h-16v72h-48v-48c0-3.104-1.8-5.928-4.608-7.248-2.784-1.304-6.12-.888-8.512 1.104l-21.744 18.12c-5.16 4.304-11.632 6.2-18.32 5.376-6.656-.832-12.496-4.272-16.448-9.704l-39.256-53.984 19.144-14.352 35.24 49.336c1.272 1.792 3.232 2.976 5.408 3.28 2.176.32 4.384-.304 6.104-1.68l26.848-21.48c7.056-5.656 15.936-8.768 24.976-8.768H287.16zM208 80c0-17.648 14.352-32 32-32s32 14.352 32 32-14.352 32-32 32S208 97.648 208 80zM464 288h-72v-24h24c4.424 0 8-3.584 8-8v-32c0-4.416-3.576-8-8-8H312v-30.92l8.616 7.184c8.48 7.064 19.648 10.328 30.536 8.968 10.936-1.352 20.928-7.248 27.416-16.168l43.896-60.352c2.568-3.536 1.832-8.488-1.672-11.104l-32-24c-1.72-1.296-3.856-1.832-6.024-1.504-2.128.328-4.032 1.504-5.28 3.256L342.4 140.48l-20.248-16.2c-9.896-7.92-22.32-12.28-34.984-12.28H275.68c7.632-8.504 12.32-19.696 12.32-32 0-26.472-21.528-48-48-48s-48 21.528-48 48c0 12.304 4.688 23.496 12.32 32h-11.488c-12.672 0-25.096 4.36-34.984 12.272L137.6 140.48l-35.096-49.128c-1.248-1.752-3.16-2.928-5.28-3.256-2.168-.32-4.304.216-6.024 1.504l-32 24c-3.504 2.624-4.24 7.568-1.672 11.104l43.896 60.352c6.488 8.912 16.48 14.808 27.416 16.168 10.872 1.352 22.064-1.904 30.536-8.968L168 185.08V216H64c-4.424 0-8 3.584-8 8v32c0 4.416 3.576 8 8 8h24v24H16V16h448V288z"/></g></g><g><g><rect x="432" y="32" width="16" height="16"/></g></g><g><g><rect x="400" y="32" width="16" height="16"/></g></g><g><g><rect x="368" y="32" width="16" height="16"/></g></g><g><g><rect x="328" y="248" width="16" height="16"/></g></g><g></g><g></g><g></g><g></g><g></g><g></g><g></g><g></g><g></g><g></g><g></g><g></g><g></g><g></g><g></g></symbol><symbol id="ham" viewBox="0 0 384.97 384.97"><g><g id="Menu_1_"><path d="M12.03 120.303h360.909c6.641 0 12.03-5.39 12.03-12.03 0-6.641-5.39-12.03-12.03-12.03H12.03c-6.641 0-12.03 5.39-12.03 12.03C0 114.913 5.39 120.303 12.03 120.303z"/><path d="M372.939 180.455H12.03c-6.641 0-12.03 5.39-12.03 12.03s5.39 12.03 12.03 12.03h360.909c6.641 0 12.03-5.39 12.03-12.03S379.58 180.455 372.939 180.455z"/><path d="M372.939 264.667H132.333c-6.641 0-12.03 5.39-12.03 12.03 0 6.641 5.39 12.03 12.03 12.03h240.606c6.641 0 12.03-5.39 12.03-12.03C384.97 270.056 379.58 264.667 372.939 264.667z"/></g><g></g><g></g><g></g><g></g><g></g><g></g></g><g></g><g></g><g></g><g></g><g></g><g></g><g></g><g></g><g></g><g></g><g></g><g></g><g></g><g></g><g></g></symbol><symbol id="image" viewBox="0 0 550.801 550.8"><g><path d="M515.828 61.201H34.972C15.659 61.201 0 76.859 0 96.172v358.458C0 473.942 15.659 489.6 34.972 489.6h480.856c19.314 0 34.973-15.658 34.973-34.971V96.172C550.801 76.859 535.143 61.201 515.828 61.201zM515.828 96.172V350.51l-68.92-62.66c-10.359-9.416-26.289-9.04-36.186.866l-69.752 69.741L203.438 194.179c-10.396-12.415-29.438-12.537-39.99-.271L34.972 343.219V96.172H515.828zM367.201 187.972c0-26.561 21.523-48.086 48.084-48.086 26.562 0 48.086 21.525 48.086 48.086 0 26.561-21.523 48.085-48.086 48.085C388.725 236.058 367.201 214.533 367.201 187.972z"/></g><g></g><g></g><g></g><g></g><g></g><g></g><g></g><g></g><g></g><g></g><g></g><g></g><g></g><g></g><g></g></symbol><symbol id="payments" viewBox="0 -11 493.78 493"><path d="m378.351562 70.472656c.214844.015625.429688.03125.648438.03125.371094 0 .742188-.03125 1.105469-.082031 9.722656.199219 17.503906 8.128906 17.515625 17.851563 0 4.417968 3.582031 8 8 8 4.417968 0 8-3.582032 8-8-.019532-15.902344-11.089844-29.660157-26.621094-33.082032v-7.6875c0-4.417968-3.582031-8-8-8s-8 3.582032-8 8v8.050782c-16.421875 4.390624-27.046875 20.277343-24.832031 37.132812 2.214843 16.855469 16.582031 29.457031 33.582031 29.457031 9.871094 0 17.871094 8.003907 17.871094 17.875 0 9.867188-8 17.871094-17.871094 17.871094s-17.871094-8.003906-17.871094-17.871094c0-4.417969-3.582031-8-8-8-4.417968 0-8 3.582031-8 8 .019532 15.328125 10.316406 28.738281 25.121094 32.71875v8.765625c0 4.417969 3.582031 8 8 8s8-3.582031 8-8v-8.398437c16.894531-3.699219 28.289062-19.535157 26.425781-36.730469-1.859375-17.195312-16.378906-30.226562-33.675781-30.222656-9.597656.003906-17.484375-7.574219-17.863281-17.164063-.375-9.589843 6.894531-17.765625 16.464843-18.511719zm0 0"/><path d="m380.207031.390625c-49.214843 0-91.214843 32.113281-106.949219 75.113281h-198.558593c-4.398438 0-7.96875 3.964844-8 8.359375l-1.890625 280.640625h-56.597656c-4.417969 0-8.210938 3.199219-8.210938 7.625v35.613282c.101562 33.527343 26.507812 61.070312 60 62.585937v.175781h247v-.234375c2 .074219 2.824219.234375 4.089844.234375h.171875c34.664062-.054687 62.738281-28.171875 62.738281-62.835937v-180.0625c2 .109375 4.117188.167969 6.1875.167969 62.628906 0 113.59375-51.0625 113.59375-113.695313 0-62.628906-50.941406-113.6875-113.574219-113.6875zm-317.164062 454.113281h-.050781c-25.878907-.035156-46.875-20.960937-46.992188-46.84375v-27.15625h232v27.042969c.011719 16.695313 6.679688 32.699219 18.523438 44.46875.839843.839844 1.882812 1.488281 2.761718 2.488281zm294.957031-46.84375c.003906 25.835938-20.914062 46.792969-46.746094 46.84375h-.152344c-25.9375-.046875-46.972656-21.015625-47.101562-46.949218v-35.425782c.066406-2.046875-.714844-4.027344-2.164062-5.472656-1.449219-1.445312-3.429688-2.222656-5.472657-2.152344h-175.554687l1.835937-273h186.171875c-1.417968 7.324219-2.152344 14.761719-2.191406 22.21875-.015625 15.769532 3.273438 31.363282 9.65625 45.78125h-75.5625c-4.421875 0-8 3.582032-8 8 0 4.417969 3.578125 8 8 8h84.242188c16.503906 25.953125 42.886718 44.046875 73.039062 50.101563zm22.207031-195.882812c-53.890625 0-97.582031-43.6875-97.578125-97.582032 0-53.894531 43.6875-97.582031 97.582032-97.582031 53.890624 0 97.578124 43.691407 97.578124 97.582031-.058593 53.867188-43.710937 97.523438-97.582031 97.582032zm0 0"/><path d="m149.367188 212.746094c-14.121094 0-25.605469 11.121094-25.605469 24.792968 0 13.671876 11.484375 24.792969 25.605469 24.792969 14.121093 0 25.609374-11.121093 25.609374-24.792969 0-13.671874-11.488281-24.792968-25.609374-24.792968zm0 33.585937c-5.300782 0-9.605469-3.945312-9.605469-8.792969 0-4.851562 4.308593-8.792968 9.605469-8.792968 5.296874 0 9.609374 3.945312 9.609374 8.792968 0 4.847657-4.3125 8.792969-9.609374 8.792969zm0 0"/><path d="m192.71875 237.503906c0 4.417969 3.578125 8 8 8h106.65625c4.417969 0 8-3.582031 8-8 0-4.417968-3.582031-8-8-8h-106.65625c-4.421875 0-8 3.582032-8 8zm0 0"/><path d="m149.367188 143.203125c-14.121094 0-25.605469 11.125-25.605469 24.796875s11.484375 24.792969 25.605469 24.792969c14.121093 0 25.609374-11.121094 25.609374-24.792969s-11.488281-24.796875-25.609374-24.796875zm0 33.589844c-5.300782 0-9.605469-3.945313-9.605469-8.792969s4.308593-8.796875 9.605469-8.796875c5.296874 0 9.609374 3.945313 9.609374 8.796875 0 4.847656-4.3125 8.796875-9.609374 8.796875zm0 0"/><path d="m149.367188 282.28125c-14.121094 0-25.605469 11.121094-25.605469 24.792969s11.484375 24.792969 25.605469 24.792969c14.121093 0 25.609374-11.121094 25.609374-24.792969s-11.488281-24.792969-25.609374-24.792969zm0 33.585938c-5.300782 0-9.605469-3.941407-9.605469-8.792969 0-4.847657 4.308593-8.792969 9.605469-8.792969 5.296874 0 9.609374 3.945312 9.609374 8.792969 0 4.847656-4.3125 8.792969-9.609374 8.792969zm0 0"/><path d="m307.375 299.503906h-106.65625c-4.421875 0-8 3.582032-8 8 0 4.417969 3.578125 8 8 8h106.65625c4.417969 0 8-3.582031 8-8 0-4.417968-3.582031-8-8-8zm0 0"/></symbol><symbol id="plus" viewBox="0 0 512 512"><g><g><path d="M492 236H276V20c0-11.046-8.954-20-20-20-11.046 0-20 8.954-20 20v216H20c-11.046 0-20 8.954-20 20s8.954 20 20 20h216v216c0 11.046 8.954 20 20 20s20-8.954 20-20V276h216c11.046 0 20-8.954 20-20C512 244.954 503.046 236 492 236z"/></g></g><g></g><g></g><g></g><g></g><g></g><g></g><g></g><g></g><g></g><g></g><g></g><g></g><g></g><g></g><g></g></symbol><symbol id="refresh" viewBox="0 0 458.186 458.186"><g><g><path d="M445.651 201.95c-1.485-9.308-10.235-15.649-19.543-14.164-9.308 1.485-15.649 10.235-14.164 19.543.016.102.033.203.051.304 17.38 102.311-51.47 199.339-153.781 216.719-102.311 17.38-199.339-51.47-216.719-153.781S92.966 71.232 195.276 53.852c62.919-10.688 126.962 11.29 170.059 58.361l-75.605 25.19c-8.944 2.976-13.781 12.638-10.806 21.582.001.002.002.005.003.007 2.976 8.944 12.638 13.781 21.582 10.806.003-.001.005-.002.007-.002l102.4-34.133c6.972-2.322 11.675-8.847 11.674-16.196v-102.4C414.59 7.641 406.949 0 397.523 0s-17.067 7.641-17.067 17.067v62.344C292.564-4.185 153.545-.702 69.949 87.19s-80.114 226.911 7.779 310.508 226.911 80.114 310.508-7.779C435.905 339.799 457.179 270.152 445.651 201.95z"/></g></g><g></g><g></g><g></g><g></g><g></g><g></g><g></g><g></g><g></g><g></g><g></g><g></g><g></g><g></g><g></g></symbol><symbol id="search" viewBox="0 0 512.005 512.005"><g><g><path d="M505.749 475.587l-145.6-145.6c28.203-34.837 45.184-79.104 45.184-127.317 0-111.744-90.923-202.667-202.667-202.667S0 90.925 0 202.669s90.923 202.667 202.667 202.667c48.213 0 92.48-16.981 127.317-45.184l145.6 145.6c4.16 4.16 9.621 6.251 15.083 6.251s10.923-2.091 15.083-6.251C514.091 497.411 514.091 483.928 505.749 475.587zM202.667 362.669c-88.235 0-160-71.765-160-160s71.765-160 160-160 160 71.765 160 160S290.901 362.669 202.667 362.669z"/></g></g><g></g><g></g><g></g><g></g><g></g><g></g><g></g><g></g><g></g><g></g><g></g><g></g><g></g><g></g><g></g></symbol><symbol id="settings" viewBox="0 0 24 24"><g><path d="m13.12 24h-2.24c-.757 0-1.396-.567-1.486-1.32l-.239-1.876c-.477-.155-.937-.346-1.374-.569l-1.494 1.161c-.606.469-1.459.415-1.985-.126l-1.575-1.575c-.537-.521-.591-1.374-.122-1.979l1.161-1.495c-.224-.437-.415-.897-.569-1.374l-1.88-.239c-.75-.092-1.317-.731-1.317-1.488v-2.24c0-.757.567-1.396 1.32-1.486l1.876-.239c.155-.477.346-.937.569-1.374l-1.16-1.494c-.47-.606-.415-1.46.127-1.986l1.575-1.575c.521-.537 1.375-.59 1.979-.122l1.494 1.162c.437-.223.897-.414 1.375-.569l.239-1.88c.09-.75.729-1.317 1.486-1.317h2.24c.757 0 1.396.567 1.486 1.32l.239 1.876c.478.155.938.346 1.375.569l1.494-1.161c.607-.469 1.459-.415 1.985.127l1.575 1.575c.537.521.591 1.374.122 1.979l-1.161 1.495c.224.437.415.897.569 1.374l1.88.239c.749.091 1.316.73 1.316 1.487v2.24c0 .757-.567 1.396-1.32 1.486l-1.876.239c-.155.477-.346.937-.569 1.374l1.161 1.494c.47.606.415 1.459-.127 1.985l-1.575 1.575c-.521.537-1.375.592-1.979.122l-1.495-1.161c-.437.224-.897.415-1.374.569l-.239 1.88c-.091.75-.73 1.317-1.487 1.317zm-5.39-4.86c.083 0 .168.021.244.063.551.308 1.148.556 1.774.736.192.055.333.219.358.417l.28 2.2c.03.251.247.444.494.444h2.24c.247 0 .464-.193.493-.439l.281-2.204c.025-.198.166-.362.358-.417.626-.18 1.223-.428 1.774-.736.175-.098.393-.081.55.042l1.75 1.36c.201.156.483.143.655-.034l1.585-1.585c.181-.176.195-.458.039-.66l-1.36-1.75c-.123-.158-.14-.375-.042-.55.308-.551.556-1.148.736-1.774.055-.192.219-.333.417-.358l2.2-.28c.251-.031.444-.248.444-.495v-2.24c0-.247-.193-.464-.439-.493l-2.204-.281c-.198-.025-.362-.166-.417-.358-.18-.626-.428-1.223-.736-1.774-.098-.175-.082-.392.042-.55l1.36-1.75c.157-.202.143-.484-.033-.654l-1.585-1.585c-.175-.182-.458-.196-.66-.039l-1.75 1.36c-.159.123-.376.14-.551.042-.549-.308-1.146-.555-1.774-.736-.192-.055-.333-.219-.358-.417l-.28-2.2c-.031-.252-.248-.445-.495-.445h-2.24c-.247 0-.464.193-.493.439l-.281 2.204c-.025.198-.166.362-.358.418-.628.18-1.225.428-1.774.735-.175.099-.392.081-.551-.041l-1.75-1.36c-.202-.157-.483-.143-.654.033l-1.585 1.586c-.181.176-.195.458-.039.66l1.36 1.75c.123.158.14.375.042.55-.309.551-.556 1.148-.736 1.774-.055.192-.219.333-.417.358l-2.2.28c-.251.03-.444.247-.444.494v2.24c0 .247.193.464.439.493l2.204.281c.198.025.362.166.417.358.18.626.428 1.223.736 1.774.098.175.082.392-.042.55l-1.36 1.75c-.157.202-.143.484.033.654l1.585 1.585c.175.181.456.195.66.039l1.75-1.36c.091-.068.199-.104.308-.104z"/></g><g><path d="m12 17c-2.757 0-5-2.243-5-5s2.243-5 5-5 5 2.243 5 5-2.243 5-5 5zm0-9c-2.206 0-4 1.794-4 4s1.794 4 4 4 4-1.794 4-4-1.794-4-4-4z"/></g></symbol><symbol id="students" viewBox="0 0 496.592 496.592"><g><g><path d="M400.296 328v-51.696l-21.816 8.488-.064-.144-.52-.944c-8.36-13.016-21.88-22.072-37.104-24.832l-52.496-9.552v-4.144c19.632-11.4 34.008-30.848 38.488-53.84 14.544-3.008 25.512-15.912 25.512-31.336V80.984c0-22.328-14.624-41.8-35.84-48.136l-4-4C293.848 10.24 269.112 0 242.8 0c-54.312 0-98.504 44.184-98.504 98.504V160c0 15.424 10.968 28.328 25.512 31.336 4.488 22.992 18.856 42.448 38.488 53.84v4.144l-52.488 9.544c-15.208 2.76-28.72 11.8-37.088 24.808l-.48 1.168-21.944-8.536V328c-13.232 0-24 10.768-24 24v32c0 13.232 10.768 24 24 24v29.472l152 59.12 152-59.12V408c13.232 0 24-10.768 24-24v-32C424.296 338.768 413.528 328 400.296 328zM303.288 268.312l34.64 6.296c10.2 1.856 19.232 7.744 25.256 16.128l-77.4 30.096L303.288 268.312zM224.976 252.512c7.384 2.256 15.208 3.488 23.32 3.488s15.936-1.232 23.32-3.488L248.296 270 224.976 252.512zM236.12 280.864l-16.328 16.32L209.2 265.416l5.096-.92L236.12 280.864zM282.296 264.504l5.096.92L276.8 297.192l-16.328-16.32L282.296 264.504zM328.296 173.776v-27.552c4.76 2.776 8 7.88 8 13.776S333.056 171 328.296 173.776zM168.296 173.776c-4.76-2.776-8-7.88-8-13.776s3.24-11 8-13.776V173.776zM168.296 120v9.136c-2.848.744-5.52 1.864-8 3.312V98.504C160.296 53.016 197.304 16 242.8 16c22.032 0 42.76 8.584 58.344 24.168l7.056 7.064 2.152.528c15.28 3.816 25.944 17.48 25.944 33.224v51.464c-2.48-1.448-5.152-2.576-8-3.312V120h-25.368c-21.68 0-42.4-10.352-55.4-27.688l-6.36-8.496L225.272 99.72C212.184 112.8 194.792 120 176.296 120H168.296zM184.296 176v-40.368c19.752-1.832 38.08-10.4 52.288-24.6l3.112-3.112c16.04 17.704 39.144 28.08 63.232 28.08h9.368v40c0 35.288-28.712 64-64 64C213.008 240 184.296 211.288 184.296 176zM158.664 274.608l34.64-6.296 17.504 52.52-77.416-30.104C139.416 282.336 148.464 276.464 158.664 274.608zM88.296 384v-32c0-4.416 3.592-8 8-8 13.232 0 24 10.768 24 24s-10.768 24-24 24C91.888 392 88.296 388.416 88.296 384zM240.296 476.304l-128-49.768v-21.928c14.104-6.192 24-20.248 24-36.608 0-16.36-9.896-30.416-24-36.608v-31.696l128 49.776V476.304zM216.544 323.072l31.752-31.76 31.752 31.752-31.752 12.352L216.544 323.072zM384.296 426.528l-128 49.768V349.472l128-49.776v31.696c-14.104 6.192-24 20.248-24 36.608 0 16.36 9.896 30.416 24 36.608V426.528zM408.296 384c0 4.416-3.592 8-8 8-13.232 0-24-10.768-24-24s10.768-24 24-24c4.408 0 8 3.584 8 8V384z"/></g></g><g></g><g></g><g></g><g></g><g></g><g></g><g></g><g></g><g></g><g></g><g></g><g></g><g></g><g></g><g></g></symbol><symbol id="teachers" viewBox="0 0 512 512"><g><path d="m482.495 75.962h-21.225v-20.094c0-4.142-3.358-7.5-7.5-7.5h-45.22c-4.142 0-7.5 3.358-7.5 7.5v20.094h-247.78v-20.094c0-4.142-3.358-7.5-7.5-7.5h-45.22c-4.142 0-7.5 3.358-7.5 7.5v20.094h-17.522c-18.313 0-33.21 14.898-33.21 33.21v182.491c0 4.142 3.358 7.5 7.5 7.5s7.5-3.358 7.5-7.5v-182.49c0-10.041 8.169-18.21 18.21-18.21h406.967c7.998 0 14.505 6.507 14.505 14.505v248.031c0 7.998-6.507 14.505-14.505 14.505h-15.984v-28.386c0-4.142-3.358-7.5-7.5-7.5h-80.587c-4.142 0-7.5 3.358-7.5 7.5v28.386h-120.208l28.378-7.76c14.698-4.01 27.579-12.356 37.252-24.137l48.2-58.72c.96-1.166 1.573-2.677 1.688-4.184l4.25-55.984c.42-5.534-2.938-10.968-8.041-13.104 2.272-1.289 3.808-3.725 3.808-6.524 0-4.142-3.358-7.5-7.5-7.5h-32.865c-4.142 0-7.5 3.358-7.5 7.5s3.358 7.5 7.5 7.5h24.531c-.821.52-1.598 1.135-2.311 1.849l-27.523 27.523c-5.316 5.314-9.692 11.988-14.403 17.846-2.596 3.228-2.084 7.949 1.144 10.545s7.949 2.084 10.545-1.144l8.628-10.727 22.143 22.143-43.886 53.465c-7.688 9.363-17.926 15.997-29.612 19.185l-118.432 34.08c-9.172 2.941-4.602 17.225 4.579 14.284l26.05-8.352v62.844h-10.42c-4.142 0-7.5 3.358-7.5 7.5s3.358 7.5 7.5 7.5h45.848c4.142 0 7.5-3.358 7.5-7.5s-3.358-7.5-7.5-7.5h-20.427v-65.629h280.155c16.269 0 29.505-13.236 29.505-29.505v-248.031c0-16.269-13.236-29.505-29.505-29.505zm-66.445-12.594h30.22v12.59h-30.22zm-308 0h30.22v12.59h-30.22zm247.096 157.744-2.632 34.673-16.02-16.02zm30.778 146.891v-20.886h65.587v20.886z"/><path d="m141.106 448.632h-96.296v-39.824c0-25.298 5.834-50.54 16.965-73.26 6.088-12.423 18.957-20.45 32.785-20.45h126.38c26.415 0 52.11-9.335 72.354-26.286 3.176-2.659 3.595-7.39.936-10.565-2.66-3.177-7.39-3.595-10.565-.936-17.548 14.694-39.824 22.787-62.724 22.787h-54.312c8.414-8.758 13.602-20.636 13.602-33.71v-27.541c19.28-1.272 34.58-17.353 34.58-36.949 0-20.429-16.616-37.05-37.04-37.05-12.486-.293-24.372 2.613-33.123 12.134-4.277 4.636-10.345 7.295-16.647 7.295h-20.61c-17.215 0-31.22 14.01-31.22 31.23v56.21c0 6.382 1.534 12.645 5.39 17.826 1.739 2.336 3.879 4.369 6.298 5.991 2.609 1.75 6.414 2.384 8.509 4.564-20.079-.337-39.149 10.662-48.062 28.85-12.135 24.769-18.495 52.279-18.495 79.86v39.824h-22.311c-4.142 0-7.5 3.358-7.5 7.5s3.358 7.5 7.5 7.5h133.606c4.142 0 7.5-3.358 7.5-7.5s-3.358-7.5-7.5-7.5zm-11.716-148.6c-4.185-.257-8.252-1.304-12.003-3.037 1.74-.893 3.427-1.994 4.936-3.239 6.234-5.144 9.668-12.758 9.668-21.438v-33.38h33.24v27.45c0 18.588-15.127 33.71-33.72 33.71-.796 0-1.467-.02-2.121-.066zm-38.22-28.314v-56.21c0-8.949 7.276-16.23 16.22-16.23h20.61c10.479 0 20.565-4.419 27.682-12.135 5.893-6.412 13.891-7.599 22.088-7.295 12.153 0 22.04 9.892 22.04 22.05 0 12.153-9.887 22.04-22.04 22.04h-53.28c-4.142 0-7.5 3.358-7.5 7.5v40.88c0 8.749-7.72 14.242-16.086 12.646-6.7-1.278-9.734-6.732-9.734-13.246z"/><path d="m256.736 162.913h40.846c4.142 0 7.5-3.358 7.5-7.5v-27.598c0-4.142-3.358-7.5-7.5-7.5h-40.846c-4.142 0-7.5 3.358-7.5 7.5v27.598c0 4.142 3.358 7.5 7.5 7.5zm7.5-27.598h25.846v12.598h-25.846z"/><path d="m249.236 211.389c0 4.142 3.358 7.5 7.5 7.5h40.846c4.142 0 7.5-3.358 7.5-7.5v-27.599c0-4.142-3.358-7.5-7.5-7.5h-40.846c-4.142 0-7.5 3.358-7.5 7.5zm15-20.099h25.846v12.599h-25.846z"/><path d="m325.886 149.114h133.125c4.142 0 7.5-3.358 7.5-7.5s-3.358-7.5-7.5-7.5h-133.125c-4.142 0-7.5 3.358-7.5 7.5s3.358 7.5 7.5 7.5z"/></g></symbol><symbol id="trash" viewBox="0 0 512 512"><g><path d="m424 64h-88v-16c0-26.467-21.533-48-48-48h-64c-26.467 0-48 21.533-48 48v16h-88c-22.056 0-40 17.944-40 40v56c0 8.836 7.164 16 16 16h8.744l13.823 290.283c1.221 25.636 22.281 45.717 47.945 45.717h242.976c25.665 0 46.725-20.081 47.945-45.717l13.823-290.283h8.744c8.836 0 16-7.164 16-16v-56c0-22.056-17.944-40-40-40zm-216-16c0-8.822 7.178-16 16-16h64c8.822 0 16 7.178 16 16v16h-96zm-128 56c0-4.411 3.589-8 8-8h336c4.411 0 8 3.589 8 8v40c-4.931 0-331.567 0-352 0zm313.469 360.761c-.407 8.545-7.427 15.239-15.981 15.239h-242.976c-8.555 0-15.575-6.694-15.981-15.239l-13.751-288.761h302.44z"/><path d="m256 448c8.836 0 16-7.164 16-16v-208c0-8.836-7.164-16-16-16s-16 7.164-16 16v208c0 8.836 7.163 16 16 16z"/><path d="m336 448c8.836 0 16-7.164 16-16v-208c0-8.836-7.164-16-16-16s-16 7.164-16 16v208c0 8.836 7.163 16 16 16z"/><path d="m176 448c8.836 0 16-7.164 16-16v-208c0-8.836-7.164-16-16-16s-16 7.164-16 16v208c0 8.836 7.163 16 16 16z"/></g></symbol><symbol id="user" viewBox="-42 0 512 512.001"><path d="m210.351562 246.632812c33.882813 0 63.21875-12.152343 87.195313-36.128906 23.96875-23.972656 36.125-53.304687 36.125-87.191406 0-33.875-12.152344-63.210938-36.128906-87.191406-23.976563-23.96875-53.3125-36.121094-87.191407-36.121094-33.886718 0-63.21875 12.152344-87.191406 36.125s-36.128906 53.308594-36.128906 87.1875c0 33.886719 12.15625 63.222656 36.128906 87.195312 23.980469 23.96875 53.316406 36.125 87.191406 36.125zm-65.972656-189.292968c18.394532-18.394532 39.972656-27.335938 65.972656-27.335938 25.996094 0 47.578126 8.941406 65.976563 27.335938 18.394531 18.398437 27.339844 39.980468 27.339844 65.972656 0 26-8.945313 47.578125-27.339844 65.976562-18.398437 18.398438-39.980469 27.339844-65.976563 27.339844-25.992187 0-47.570312-8.945312-65.972656-27.339844-18.398437-18.394531-27.34375-39.976562-27.34375-65.976562 0-25.992188 8.945313-47.574219 27.34375-65.972656zm0 0"/><path d="m426.128906 393.703125c-.691406-9.976563-2.089844-20.859375-4.148437-32.351563-2.078125-11.578124-4.753907-22.523437-7.957031-32.527343-3.3125-10.339844-7.808594-20.550781-13.375-30.335938-5.769532-10.15625-12.550782-19-20.160157-26.277343-7.957031-7.613282-17.699219-13.734376-28.964843-18.199219-11.226563-4.441407-23.667969-6.691407-36.976563-6.691407-5.226563 0-10.28125 2.144532-20.042969 8.5-6.007812 3.917969-13.035156 8.449219-20.878906 13.460938-6.707031 4.273438-15.792969 8.277344-27.015625 11.902344-10.949219 3.542968-22.066406 5.339844-33.042969 5.339844-10.96875 0-22.085937-1.796876-33.042968-5.339844-11.210938-3.621094-20.300782-7.625-26.996094-11.898438-7.769532-4.964844-14.800782-9.496094-20.898438-13.46875-9.753906-6.355468-14.808594-8.5-20.035156-8.5-13.3125 0-25.75 2.253906-36.972656 6.699219-11.257813 4.457031-21.003906 10.578125-28.96875 18.199219-7.609375 7.28125-14.390625 16.121094-20.15625 26.273437-5.558594 9.785157-10.058594 19.992188-13.371094 30.339844-3.199219 10.003906-5.875 20.945313-7.953125 32.523437-2.0625 11.476563-3.457031 22.363282-4.148437 32.363282-.679688 9.777344-1.023438 19.953125-1.023438 30.234375 0 26.726562 8.496094 48.363281 25.25 64.320312 16.546875 15.746094 38.4375 23.730469 65.066406 23.730469h246.53125c26.621094 0 48.511719-7.984375 65.0625-23.730469 16.757813-15.945312 25.253906-37.589843 25.253906-64.324219-.003906-10.316406-.351562-20.492187-1.035156-30.242187zm-44.90625 72.828125c-10.933594 10.40625-25.449218 15.464844-44.378906 15.464844h-246.527344c-18.933594 0-33.449218-5.058594-44.378906-15.460938-10.722656-10.207031-15.933594-24.140625-15.933594-42.585937 0-9.59375.316406-19.066407.949219-28.160157.617187-8.921874 1.878906-18.722656 3.75-29.136718 1.847656-10.285156 4.199219-19.9375 6.996094-28.675782 2.683593-8.378906 6.34375-16.675781 10.882812-24.667968 4.332031-7.617188 9.316407-14.152344 14.816407-19.417969 5.144531-4.925781 11.628906-8.957031 19.269531-11.980469 7.066406-2.796875 15.007812-4.328125 23.628906-4.558594 1.050781.558594 2.921875 1.625 5.953125 3.601563 6.167969 4.019531 13.277344 8.605469 21.136719 13.625 8.859375 5.648437 20.273437 10.75 33.910156 15.152344 13.941406 4.507812 28.160156 6.796875 42.273437 6.796875 14.113282 0 28.335938-2.289063 42.269532-6.792969 13.648437-4.410156 25.058594-9.507813 33.929687-15.164063 8.042969-5.140624 14.953125-9.59375 21.121094-13.617187 3.03125-1.972656 4.902344-3.042969 5.953125-3.601563 8.625.230469 16.566406 1.761719 23.636719 4.558594 7.636719 3.023438 14.121093 7.058594 19.265625 11.980469 5.5 5.261719 10.484375 11.796875 14.816406 19.421875 4.542969 7.988281 8.207031 16.289062 10.886719 24.660156 2.800781 8.75 5.15625 18.398438 7 28.675782 1.867187 10.433593 3.132812 20.238281 3.75 29.144531v.007812c.636719 9.058594.957031 18.527344.960937 28.148438-.003906 18.449219-5.214844 32.378906-15.9375 42.582031zm0 0"/></symbol><symbol id="visibilityOff" viewBox="0 0 469.44 469.44"><g><g><g><path d="M231.147 160.373l67.2 67.2.32-3.52c0-35.307-28.693-64-64-64L231.147 160.373z"/><path d="M234.667 117.387c58.88 0 106.667 47.787 106.667 106.667 0 13.76-2.773 26.88-7.573 38.933l62.4 62.4c32.213-26.88 57.6-61.653 73.28-101.333-37.013-93.653-128-160-234.773-160-29.867 0-58.453 5.333-85.013 14.933l46.08 45.973C207.787 120.267 220.907 117.387 234.667 117.387z"/><path d="M21.333 59.253l48.64 48.64 9.707 9.707C44.48 145.12 16.64 181.707 0 224.053c36.907 93.653 128 160 234.667 160 33.067 0 64.64-6.4 93.547-18.027l9.067 9.067 62.187 62.293 27.2-27.093L48.533 32.053 21.333 59.253zM139.307 177.12l32.96 32.96c-.96 4.587-1.6 9.173-1.6 13.973 0 35.307 28.693 64 64 64 4.8 0 9.387-.64 13.867-1.6l32.96 32.96c-14.187 7.04-29.973 11.307-46.827 11.307C175.787 330.72 128 282.933 128 224.053 128 207.2 132.267 191.413 139.307 177.12z"/></g></g></g><g></g><g></g><g></g><g></g><g></g><g></g><g></g><g></g><g></g><g></g><g></g><g></g><g></g><g></g><g></g></symbol><symbol id="visibilityOn" viewBox="0 0 469.333 469.333"><g><g><g><path d="M234.667 170.667c-35.307 0-64 28.693-64 64s28.693 64 64 64 64-28.693 64-64S269.973 170.667 234.667 170.667z"/><path d="M234.667 74.667C128 74.667 36.907 141.013 0 234.667c36.907 93.653 128 160 234.667 160 106.773 0 197.76-66.347 234.667-160C432.427 141.013 341.44 74.667 234.667 74.667zM234.667 341.333c-58.88 0-106.667-47.787-106.667-106.667S175.787 128 234.667 128s106.667 47.787 106.667 106.667S293.547 341.333 234.667 341.333z"/></g></g></g><g></g><g></g><g></g><g></g><g></g><g></g><g></g><g></g><g></g><g></g><g></g><g></g><g></g><g></g><g></g></symbol></svg>